<?xml version="1.0" encoding="utf-8"?>
<!DOCTYPE svg PUBLIC "-//W3C//DTD SVG 1.0//EN" "http://www.w3.org/TR/2001/REC-SVG-20010904/DTD/svg10.dtd">
<svg version="1.0" xmlns="http://www.w3.org/2000/svg" width="1200px" height="1200px" viewBox="0 0 1200 1200" preserveAspectRatio="xMidYMid meet">
 <g fill="#f7f5f0">
  <path d="M0 600 l0 -600 600 0 600 0 0 600 0 600 -600 0 -600 0 0 -600z m364.10 283.36 c-0.23 -1.52 -0.47 -0.59 -0.47 1.99 -0.12 2.58 0.12 3.75 0.47 2.70 0.23 -1.17 0.23 -3.28 0 -4.69z m24.61 -17.58 c-0.12 -4.69 -0.35 -1.17 -0.35 7.85 0 9.02 0.12 12.89 0.35 8.55 0.23 -4.34 0.23 -11.72 0 -16.41z m108.98 0 c-0.12 -4.69 -0.35 -1.17 -0.35 7.85 0 9.02 0.12 12.89 0.35 8.55 0.23 -4.34 0.23 -11.72 0 -16.41z m237.89 0 c-0.12 -4.69 -0.35 -1.17 -0.35 7.85 0 9.02 0.12 12.89 0.35 8.55 0.23 -4.34 0.23 -11.72 0 -16.41z m30.47 0 c-0.12 -4.69 -0.35 -1.17 -0.35 7.85 0 9.02 0.12 12.89 0.35 8.55 0.23 -4.34 0.23 -11.72 0 -16.41z m29.30 0 c-0.12 -4.69 -0.35 -1.17 -0.35 7.85 0 9.02 0.12 12.89 0.35 8.55 0.23 -4.34 0.23 -11.72 0 -16.41z m55.08 13.48 c-0.23 -1.88 -0.47 -0.59 -0.47 2.58 0 3.28 0.23 4.69 0.47 3.28 0.23 -1.52 0.23 -4.10 0 -5.86z m-253.95 2.58 c0 -1.88 -0.70 -2.93 -1.76 -2.93 -1.05 0 -1.76 1.05 -1.76 2.93 0 1.88 0.70 2.93 1.76 2.93 1.05 0 1.76 -1.05 1.76 -2.93z m46.05 -0.23 c-1.52 -2.34 -2.23 -6.45 -2.70 -15 l-0.59 -11.72 -1.99 3.75 c-2.34 4.22 -2.70 12.19 -0.82 15.94 1.64 3.28 6.80 10.20 7.62 10.20 0.23 0 -0.47 -1.41 -1.52 -3.16z m-330.82 -6.21 c-1.29 -3.16 -3.28 -4.69 -14.88 -12.07 -4.34 -2.70 -4.92 -3.63 -5.27 -8.09 -0.35 -4.69 -0.47 -4.80 -1.41 -1.76 -1.29 4.22 1.41 8.20 8.32 12.30 9.73 5.74 12.07 8.20 12.07 12.89 0.12 3.63 0.23 3.98 1.29 2.23 0.94 -1.52 0.82 -3.16 -0.12 -5.51z m13.95 -2.58 c0 -3.63 -0.35 -4.34 -0.94 -2.81 -0.82 2.11 -0.35 7.73 0.59 7.73 0.23 0 0.47 -2.23 0.35 -4.92z m79.69 0 c0 -4.45 -0.12 -4.69 -1.17 -2.23 -0.94 2.58 -0.47 7.15 0.82 7.15 0.23 0 0.47 -2.23 0.35 -4.92z m76.41 -3.16 c-0.94 -2.58 -1.05 -2.23 -1.17 2.81 0 4.92 0.23 5.39 1.17 3.05 0.70 -1.76 0.70 -3.98 0 -5.86z m205.78 2.58 c-0.35 -1.17 -0.59 -0.23 -0.59 1.99 0 2.23 0.23 3.16 0.59 2.11 0.23 -1.17 0.23 -3.05 0 -4.10z m-250.78 -1.76 c-0.23 -1.52 -0.47 -0.59 -0.47 1.99 -0.12 2.58 0.12 3.75 0.47 2.70 0.23 -1.17 0.23 -3.28 0 -4.69z m12.89 0.59 c-0.35 -1.17 -0.59 -0.23 -0.59 1.99 0 2.23 0.23 3.16 0.59 2.11 0.23 -1.17 0.23 -3.05 0 -4.10z m373.83 0 c-0.35 -1.17 -0.59 -0.23 -0.59 1.99 0 2.23 0.23 3.16 0.59 2.11 0.23 -1.17 0.23 -3.05 0 -4.10z m46.88 -9.38 c-0.23 -2.46 -0.47 -0.70 -0.47 3.75 0 4.57 0.23 6.45 0.47 4.45 0.23 -2.11 0.23 -5.86 0 -8.20z m-289.10 4.69 c-0.94 -0.35 -2.46 -1.17 -3.16 -1.88 -1.05 -0.82 -1.52 -0.59 -1.52 0.82 0 1.29 0.94 1.88 3.28 1.76 1.76 0 2.46 -0.35 1.41 -0.70z m-256.05 -46.05 c2.11 -0.94 1.99 -1.05 -0.82 -1.05 -4.80 -0.12 -7.15 -4.45 -6.56 -12.30 0.35 -5.63 0.12 -6.21 -1.64 -5.27 -2.93 1.64 -5.63 5.86 -5.63 9.02 0 3.40 7.03 10.78 10.20 10.66 1.17 0 3.16 -0.47 4.45 -1.05z m22.97 -1.29 c-0.23 -0.94 -0.82 -10.20 -1.17 -20.63 l-0.70 -19.10 -3.52 -3.52 c-2.46 -2.46 -5.16 -3.75 -8.20 -4.10 -4.69 -0.59 -4.69 -0.59 -0.94 0.59 5.51 1.76 6.56 6.56 6.09 27.42 -0.35 9.38 -0.12 17.11 0.35 17.11 0.59 0 1.99 1.05 3.40 2.46 2.58 2.58 5.51 2.46 4.69 -0.23z m68.44 1.29 c2.11 -0.94 1.99 -1.05 -0.70 -1.05 -5.39 -0.23 -6.09 -2.34 -6.68 -21.80 -0.59 -21.33 -0.23 -23.67 4.22 -24.38 2.93 -0.47 2.93 -0.47 -0.59 -0.70 l-3.87 -0.12 0 -6.56 c0 -7.03 -2.11 -8.32 -3.63 -2.34 -0.47 1.88 -1.76 4.22 -2.81 5.39 -1.64 1.88 -1.99 5.04 -1.88 20.74 0.12 10.20 0.70 20.51 1.41 22.85 1.88 7.03 8.44 10.66 14.53 7.97z m377.93 0 c1.41 -0.94 1.05 -1.17 -1.29 -1.17 -5.74 0 -6.33 -2.23 -6.68 -24.26 l-0.47 -20.27 2.81 -1.05 2.70 -1.17 -2.58 0 c-2.46 -0.12 -2.70 -0.70 -2.70 -6.68 0 -7.03 -2.11 -8.32 -3.63 -2.34 -0.47 1.88 -1.76 4.22 -2.81 5.39 -1.64 1.88 -1.99 5.04 -1.88 20.74 0.12 10.20 0.70 20.51 1.41 22.97 1.76 6.68 10.20 11.02 15.12 7.85z m60.35 0.12 c1.88 -0.82 1.76 -1.05 -1.41 -1.64 -2.93 -0.59 -3.98 -1.64 -5.04 -5.04 -0.82 -2.34 -1.17 -6.33 -0.82 -8.79 0.59 -4.45 0.59 -4.45 -2.11 -2.70 -1.52 0.94 -3.28 3.28 -4.10 5.04 -1.76 4.22 0.82 9.73 5.63 12.30 3.52 1.99 4.57 2.11 7.85 0.82z m21.91 -18.52 c-0.23 -11.25 -1.05 -20.98 -1.88 -22.62 -1.88 -3.98 -8.55 -8.20 -12.89 -8.09 -3.75 0.12 -3.40 0.35 1.88 1.52 2.11 0.47 3.40 1.88 4.34 4.34 1.76 5.27 1.76 37.62 -0.12 39.49 -1.05 1.05 -0.94 1.41 0.94 1.41 1.17 0 3.28 0.82 4.45 1.76 1.29 0.94 2.70 1.76 3.05 1.76 0.47 0 0.59 -8.79 0.23 -19.57z m-602.81 1.76 l-0.35 -16.76 11.48 -0.35 c6.21 -0.12 11.37 -0.70 11.37 -1.17 0 -0.47 -5.16 -0.82 -11.37 -0.82 l-11.48 0 0 -16.41 0 -16.41 5.86 -0.70 c4.69 -0.59 3.75 -0.70 -4.92 -0.82 l-10.90 -0.23 0 35.16 0 35.16 5.39 0 5.39 0 -0.47 -16.64z m104.53 -6.91 l0 -23.44 -3.75 0.35 -3.87 0.35 -0.35 23.20 -0.23 23.09 4.10 0 4.10 0 0 -23.55z m69.14 1.64 c0.12 -28.95 0 -54.73 -0.35 -54.96 -0.12 -0.12 -2.23 0.12 -4.69 0.47 l-4.57 0.47 0.47 37.97 0.35 37.97 4.45 0 4.34 0 0 -21.91z m33.98 3.75 c0 -20.74 -1.05 -24.96 -7.27 -28.71 -2.11 -1.29 -5.39 -2.34 -7.38 -2.34 l-3.52 0.12 3.75 1.64 c1.99 0.82 4.22 2.58 4.92 3.98 0.82 1.41 1.29 10.43 1.29 22.85 l0 20.63 4.10 0 4.10 0 0 -18.16z m125.39 -20.63 l0 -38.79 -2.58 0.70 c-1.52 0.35 -3.40 0.70 -4.10 0.70 -1.17 0 -1.52 8.44 -1.52 38.09 l0 38.09 4.10 0 4.10 0 0 -38.79z m33.75 19.80 c-0.35 -16.05 -0.70 -19.69 -2.58 -22.73 -2.81 -4.69 -7.62 -7.50 -12.66 -7.38 l-3.87 0 4.34 1.88 c5.98 2.34 6.80 5.98 6.80 28.83 l0 18.40 4.22 0 4.22 0 -0.47 -18.98z m29.53 0.70 c0 -10.31 0.47 -19.22 1.17 -20.51 0.82 -1.52 0.82 -2.23 0 -2.23 -0.59 0 -1.17 -1.64 -1.17 -3.52 0 -3.28 -0.23 -3.52 -3.16 -2.81 -1.88 0.47 -3.63 1.05 -4.10 1.29 -0.59 0.23 -0.94 10.78 -0.94 23.32 l0 22.73 4.10 0 4.10 0 0 -18.28z m42.19 -5.51 l0 -23.79 -4.10 0.47 -4.10 0.47 0 23.32 0 23.32 4.10 0 4.10 0 0 -23.79z m111.33 0.23 l0 -23.44 -3.75 0.35 -3.87 0.35 -0.35 23.20 -0.23 23.09 4.10 0 4.10 0 0 -23.55z m84.14 0.23 c-0.23 -12.89 -0.70 -23.67 -1.05 -24.02 -0.35 -0.35 -2.23 -0.23 -4.10 0.47 l-3.40 1.17 0.35 22.85 0.35 22.85 4.10 0 4.22 0 -0.47 -23.32z m33.40 6.09 c-0.59 -22.85 -0.82 -24.14 -5.74 -28.36 -4.22 -3.75 -9.02 -4.57 -13.95 -2.46 -1.88 0.82 -1.41 1.05 2.23 1.05 8.55 0.23 8.91 1.17 8.91 25.55 l0 21.45 4.45 0 4.45 0 -0.35 -17.23z m-364.10 15.12 c0.70 -0.47 1.64 -1.88 2.11 -3.16 0.70 -1.99 0.59 -2.11 -0.70 -0.59 -0.82 0.94 -2.23 2.46 -3.16 3.28 -1.88 1.52 -0.35 1.99 1.76 0.47z m-38.09 -4.57 c-5.63 -7.15 -7.50 -12.77 -8.09 -25.55 -0.59 -13.71 1.05 -23.32 5.16 -29.30 2.34 -3.52 2.46 -3.98 0.59 -2.93 -1.17 0.59 -4.34 3.63 -7.03 6.56 -6.09 6.91 -9.96 18.52 -8.91 26.25 1.52 10.43 7.27 20.27 15.12 25.78 6.45 4.57 7.38 4.34 3.16 -0.82z m222.54 -6.45 c0 -4.22 -4.69 -9.14 -12.66 -13.24 -11.48 -5.86 -11.25 -5.63 -11.95 -13.13 l-0.59 -6.80 -2.70 4.10 c-1.41 2.23 -2.58 5.04 -2.58 6.21 0 3.98 4.45 8.55 11.95 12.54 10.90 5.74 12.66 7.62 12.66 13.95 l0.12 5.39 2.81 -3.28 c1.64 -1.76 2.93 -4.34 2.93 -5.74z m-445.31 -28.01 c0 -1.29 -0.47 -1.99 -1.17 -1.64 -0.59 0.35 -1.17 1.52 -1.17 2.46 0 0.94 0.59 1.64 1.17 1.64 0.70 0 1.17 -1.05 1.17 -2.46z m529.69 -0.59 c0 -0.94 -0.47 -1.41 -1.17 -1.05 -0.59 0.35 -1.17 1.52 -1.17 2.46 0 0.94 0.59 1.41 1.17 1.05 0.70 -0.35 1.17 -1.52 1.17 -2.46z m-157.03 -4.57 c0 -3.75 -2.46 -3.75 -6.68 0 l-3.28 2.81 5.04 0.12 c4.45 0 4.92 -0.23 4.92 -2.93z m-110.51 -19.92 c-0.47 -0.94 -1.29 -1.76 -1.99 -1.76 -0.82 0 -0.82 0.70 0 2.46 1.52 2.70 3.05 2.23 1.99 -0.70z m-275.04 -1.76 c0 -1.52 -0.82 -2.34 -2.34 -2.34 -2.23 0 -2.23 0.12 -0.23 2.23 2.58 2.93 2.58 2.93 2.58 0.12z m73.95 -0.70 c2.81 -2.58 0.94 -6.33 -3.05 -6.33 -3.28 0 -5.04 3.87 -2.93 6.45 1.88 2.23 3.40 2.23 5.98 -0.12z m333.16 0.35 c2.46 -1.88 1.76 -5.98 -1.29 -7.15 -3.87 -1.52 -6.68 4.22 -3.63 7.27 1.76 1.76 2.34 1.76 4.92 -0.12z m111.80 0.12 c1.88 -1.88 1.76 -3.87 -0.47 -6.09 -2.23 -2.34 -6.33 -0.59 -6.33 2.58 0 2.34 2.11 4.92 4.10 4.92 0.70 0 1.88 -0.59 2.70 -1.41z m-189.61 -65.98 c70.78 -42.19 104.18 -70.20 122.46 -102.54 6.91 -12.07 11.95 -25.55 14.53 -38.32 2.34 -11.48 2.46 -15.35 2.46 -125.63 l0 -113.79 -169.34 0 -169.34 0 0 115.20 c0 107.81 0.12 115.78 2.23 125.63 7.62 36.68 30.23 66.45 75.35 99.26 15.23 11.13 30.94 21.33 67.03 43.24 22.15 13.36 24.84 14.77 26.95 13.36 1.41 -0.82 13.83 -8.20 27.66 -16.41z"/>
 </g>
 <g fill="#f9d486">
  <path d="M757.03 455.27 l0 -88.48 4.10 0 4.10 0 0 88.48 0 88.48 -4.10 0 -4.10 0 0 -88.48z"/>
  <path d="M599.53 408.16 c-0.47 -3.16 -0.59 -26.37 -0.47 -51.56 l0.35 -46.05 82.97 0 82.85 0 0 14.06 0 14.06 -4.10 0 -4.10 0 -0.12 -9.02 c-0.12 -5.63 -0.47 -7.97 -0.94 -6.21 l-0.82 2.93 -68.79 0.35 -68.79 0.23 0.23 31.99 0.35 31.88 27.89 0.35 c27.19 0.23 28.01 0.23 28.59 -2.11 0.47 -1.99 1.64 -2.34 6.45 -2.34 5.39 0 6.45 0.47 14.53 7.15 7.62 6.33 8.67 7.73 8.67 11.13 0 2.70 -0.70 4.34 -2.23 5.16 -3.16 1.64 -9.14 1.52 -9.84 -0.23 -0.35 -1.17 -9.14 -1.52 -39.02 -1.52 -21.21 0.12 -39.96 0.47 -41.72 0.94 -1.88 0.47 -3.28 1.64 -3.28 2.58 0 1.17 -1.29 1.76 -3.98 1.76 -3.87 0 -3.98 -0.12 -4.69 -5.51z"/>
 </g>
 <g fill="#f7c972">
  <path d="M608.20 577.85 c0 -4.69 -0.12 -4.80 -4.10 -4.80 l-4.10 0 0 -81.91 c0 -45 0.35 -83.55 0.70 -85.55 0.47 -1.99 1.17 -3.63 1.76 -3.63 0.59 0 0.94 0.35 0.94 0.94 -0.12 0.47 0 2.46 0.12 4.34 0.23 2.81 0.35 3.05 0.94 1.17 0.47 -1.29 1.64 -2.58 2.58 -2.81 0.94 -0.23 21.68 -0.70 45.94 -0.94 40.78 -0.35 44.18 -0.23 43.48 1.52 -0.59 1.64 -0.35 1.76 1.76 0.59 1.99 -1.05 2.58 -1.05 2.46 0.12 -0.12 3.52 -2.23 6.21 -9.84 12.77 -6.33 5.27 -9.02 6.91 -11.95 6.91 -3.52 0 -3.87 -0.35 -3.87 -3.52 l0 -3.52 -28.36 0.23 -28.48 0.35 -0.59 80.86 -0.59 80.86 -4.34 0.35 -4.45 0.35 0 -4.69z"/>
  <path d="M526.17 573.52 c-0.70 -1.64 -1.17 -15.35 -1.17 -30.47 l0 -27.42 3.98 0 3.98 0 0.47 26.02 c0.23 19.45 0.70 26.02 1.88 26.48 0.70 0.23 1.41 2.23 1.41 4.45 0 3.87 -0.12 3.98 -4.69 3.98 -3.98 0 -4.92 -0.47 -5.86 -3.05z"/>
  <path d="M509.77 523.24 l0 -49.80 4.10 0 4.10 0 0 49.80 0 49.80 -4.10 0 -4.10 0 0 -49.80z"/>
  <path d="M648.05 529.45 c0 -12.30 -0.59 -25.78 -1.29 -29.77 -1.17 -6.91 -1.52 -7.50 -5.27 -8.91 -2.23 -0.70 -3.98 -1.88 -3.98 -2.34 0 -0.47 -0.82 -0.94 -1.76 -0.94 -1.05 0 -1.76 -1.05 -1.76 -2.93 0 -1.88 -0.70 -2.93 -1.76 -2.93 -2.46 0 -2.46 -18.40 0 -26.72 2.23 -7.38 8.91 -13.48 17.70 -16.05 7.73 -2.23 37.15 -2.34 45.59 -0.23 5.86 1.52 5.86 1.52 7.85 8.55 1.05 3.75 1.99 9.38 1.99 12.54 l0.12 5.51 -7.27 0 c-7.03 0 -7.50 -0.23 -10.66 -4.10 -3.75 -4.80 -10.08 -6.80 -17.46 -5.74 -6.80 1.05 -11.13 4.34 -12.66 9.61 -0.70 2.58 -1.17 20.98 -1.17 45.70 l0 41.25 -4.10 0 -4.10 0 0 -22.50z"/>
  <path d="M566.02 513.40 c0 -0.82 -6.68 -1.29 -19.80 -1.29 -16.99 0 -19.92 -0.23 -20.51 -1.88 -0.35 -1.05 -0.70 -9.73 -0.70 -19.34 l0 -17.46 4.10 0 4.10 0 0 14.65 0 14.65 21.21 0 21.09 0 -0.35 5.63 c-0.35 5.51 -0.35 5.51 -4.69 5.86 -2.58 0.23 -4.45 -0.12 -4.45 -0.82z"/>
  <path d="M568.36 462.19 c0 -2.23 -0.59 -6.45 -1.29 -9.38 l-1.29 -5.16 -26.02 0 c-18.16 0.12 -25.31 0.47 -23.79 1.29 1.41 0.82 1.99 2.70 1.99 6.33 0 5.16 -0.12 5.27 -3.87 5.27 -2.46 0 -4.22 -0.82 -5.27 -2.34 -0.94 -1.64 -2.70 -2.34 -5.51 -2.34 l-4.10 0 0 -8.20 0 -8.20 37.85 0 37.73 0 2.11 9.84 c1.05 5.39 1.99 11.48 1.99 13.48 0 3.52 -0.12 3.63 -5.27 3.63 -5.27 0 -5.27 0 -5.27 -4.22z"/>
  <path d="M755.74 422.81 c-0.12 -3.40 -0.59 -11.48 -1.17 -17.93 -2.11 -22.38 -3.28 -38.79 -4.10 -58.01 -0.70 -17.23 -1.05 -19.57 -3.16 -21.45 -2.34 -1.99 -2.34 -1.99 0.70 -1.99 1.64 0 3.40 -0.59 3.75 -1.17 0.35 -0.70 0 -1.17 -0.94 -1.17 -0.94 0 -1.99 -0.82 -2.34 -1.64 -0.59 -1.29 0.70 -1.99 4.57 -2.58 2.93 -0.35 5.74 -0.35 6.33 0.23 0.59 0.59 1.29 5.04 1.52 9.84 l0.35 8.79 0.23 -10.78 0.23 -10.78 -6.68 -0.47 c-6.68 -0.47 -6.68 -0.47 0.82 -0.35 l7.62 0.12 0.82 11.13 c1.05 14.30 -0.23 104.30 -1.52 104.30 -0.59 0 -1.17 -13.36 -1.41 -29.53 l-0.23 -29.65 -0.35 29.65 c-0.23 28.71 -0.35 29.53 -2.58 29.53 -1.99 0 -2.34 -0.82 -2.46 -6.09z"/>
  <path d="M439.45 369.73 l0 -56.84 4.10 0 4.10 0 0 56.84 0 56.84 -4.10 0 -4.10 0 0 -56.84z"/>
  <path d="M698.44 402.54 c-1.17 -1.41 -1.17 -1.76 0.47 -1.76 1.05 0 1.88 0.82 1.88 1.76 0 0.94 -0.23 1.76 -0.47 1.76 -0.23 0 -1.05 -0.82 -1.88 -1.76z"/>
  <path d="M598.83 336.09 c0 -7.27 -0.35 -16.05 -0.82 -19.45 l-0.70 -6.21 4.45 0.35 c4.45 0.35 7.38 3.28 3.28 3.28 -1.99 0 -2.11 1.05 -1.76 13.71 0.47 15.82 -0.23 21.45 -2.70 21.45 -1.41 0 -1.76 -2.46 -1.76 -13.13z"/>
 </g>
 <g fill="#f3c061">
  <path d="M622.27 680.51 c0 -2.81 1.05 -4.80 3.87 -7.50 7.50 -7.03 12.19 -8.79 17.70 -6.68 2.23 0.82 2.58 7.85 0.47 9.49 -4.34 3.40 -15.59 8.55 -18.63 8.55 -3.05 0 -3.40 -0.35 -3.40 -3.87z"/>
  <path d="M600.47 580.66 c0.47 -35.27 0.35 -52.15 -0.47 -52.15 -0.82 0 -1.17 -21.09 -1.17 -63.87 0 -62.81 0 -63.87 2.34 -63.87 2.23 0 2.23 1.17 2.34 84.02 0 46.17 0.23 84.26 0.59 84.49 0.35 0.35 0.59 -9.84 0.70 -22.73 0 -12.77 0.47 -24.38 1.05 -25.66 0.59 -1.29 1.05 -1.76 1.05 -1.17 0.12 0.70 0.70 0.35 1.29 -0.59 1.05 -1.52 1.17 -1.52 1.29 0 0 1.17 0.35 0.94 1.05 -0.59 0.59 -1.41 1.05 10.43 1.05 29.06 0.12 20.63 0.47 31.17 1.29 30.70 0.70 -0.47 1.29 -13.13 1.41 -33.16 l0.35 -32.46 0.23 30.82 c0.23 19.10 0.82 30.70 1.52 30.70 0.70 0 1.17 8.91 1.17 23.44 0 20.04 -0.23 23.44 -1.76 23.44 -1.29 0 -1.76 1.41 -1.76 5.16 0 5.86 -0.94 6.56 -9.02 6.56 l-5.39 0 0.82 -52.15z"/>
  <path d="M700.78 627.89 c0 -2.93 1.52 -5.27 7.38 -11.48 23.44 -24.84 23.79 -25.31 25.43 -31.05 1.05 -3.63 2.34 -5.74 3.75 -6.21 1.29 -0.23 2.11 -1.52 2.11 -3.16 0 -1.52 0.70 -3.52 1.64 -4.34 0.82 -0.94 1.99 -2.93 2.46 -4.45 0.47 -1.64 1.76 -3.98 2.93 -5.27 1.05 -1.29 2.34 -4.80 2.81 -7.97 0.35 -3.05 1.52 -6.91 2.58 -8.44 1.64 -2.58 1.88 -5.86 1.64 -21.45 -0.59 -28.24 -0.94 -51.21 -1.76 -108.98 -0.59 -45.70 -0.47 -52.97 0.94 -52.97 2.34 0 3.16 3.63 3.16 15.59 0 5.74 0.59 11.48 1.29 12.77 1.76 3.28 1.99 10.90 3.16 85.90 l0.94 64.45 0.47 -67.38 c0.23 -39.14 0.70 -63.52 1.17 -58.01 0.47 5.16 0.94 37.62 1.05 72.07 0.35 68.55 0.35 67.38 -6.80 84.49 -5.98 14.30 -15.70 27.42 -32.46 44.18 -14.18 13.95 -16.05 15.47 -19.80 15.47 -3.87 0 -4.10 -0.23 -4.10 -3.75z"/>
  <path d="M659.18 577.62 c-2.58 -0.70 -5.51 -1.76 -6.45 -2.58 -2.34 -1.88 -4.69 -7.27 -4.69 -10.78 0 -2.46 -0.59 -2.93 -3.40 -2.93 -2.34 0 -3.63 -0.70 -3.98 -1.99 -0.47 -1.64 -0.59 -1.52 -0.70 0.47 0 1.41 0.47 2.70 1.05 2.93 0.70 0.23 1.52 3.16 1.99 6.56 l0.70 6.09 -4.80 0 c-4.80 0 -4.80 -0.12 -6.56 -5.86 -1.52 -5.04 -1.64 -13.24 -1.05 -53.91 0.35 -26.48 1.17 -48.05 1.76 -48.05 0.47 0 1.05 2.46 1.05 5.63 0.23 5.27 0.23 5.39 1.05 1.41 l0.70 -4.10 1.05 4.69 c0.59 2.58 0.94 5.63 0.70 6.80 -0.12 1.17 0.47 1.99 1.52 1.99 1.05 0 1.88 0.47 1.88 0.94 0 0.47 1.64 1.52 3.52 2.23 2.70 0.94 3.52 0.94 3.63 0 0.12 -0.82 0.70 0.70 1.29 3.28 0.59 2.58 1.52 16.88 1.99 31.64 l0.82 26.95 0.23 -29.77 c0.12 -16.41 0.59 -29.41 1.05 -28.95 0.47 0.35 1.17 15.82 1.64 34.10 1.17 45 1.17 45.12 23.09 45.12 l11.95 0 0 3.98 c0 3.63 -0.35 3.98 -4.34 4.69 -6.33 0.94 -21.21 0.70 -26.72 -0.59z"/>
  <path d="M693.98 569.30 l0.35 -8.55 6.21 -0.35 6.09 -0.35 0 4.34 c0 2.34 -0.59 6.33 -1.41 8.79 -1.29 4.45 -1.52 4.57 -6.45 4.57 l-5.16 0 0.35 -8.44z"/>
  <path d="M510.94 515.39 c0 -12.42 -0.35 -30.94 -0.82 -41.02 l-0.70 -18.40 -3.98 -1.88 c-3.40 -1.64 -3.87 -2.46 -3.87 -6.21 0 -2.46 0.59 -5.04 1.41 -5.86 1.05 -1.05 10.55 -1.41 35.63 -1.41 l34.34 0 1.41 6.80 c0.82 3.63 1.88 7.15 2.46 7.85 0.47 0.59 0.94 3.63 0.94 6.68 l0 5.63 -7.03 0 c-7.03 0 -7.03 0 -9.38 -4.69 l-2.46 -4.80 -11.95 0.35 c-14.30 0.47 -13.36 -0.94 -14.41 21.21 -0.82 16.41 -2.70 20.04 -3.05 5.86 l-0.23 -9.14 -0.35 8.79 c-0.35 6.09 -0.94 9.02 -2.11 9.73 -0.94 0.47 -1.76 1.41 -1.76 2.11 0 0.59 -1.29 2.46 -2.93 4.10 -2.81 2.81 -2.93 3.40 -2.93 19.80 0 16.17 -0.12 16.99 -2.34 16.99 -2.23 0 -2.34 -0.94 -2.70 -30.70 l-0.23 -30.82 -0.35 30.82 c-0.12 19.45 -0.70 30.70 -1.41 30.70 -0.70 0 -1.17 -8.32 -1.17 -22.50z m63.98 -55.08 c-0.35 -1.52 -1.29 -5.98 -2.11 -9.96 l-1.29 -7.38 -34.45 0 -34.34 0 0 4.69 c0 4.57 0.12 4.69 3.98 4.69 2.93 0 4.69 0.82 5.98 2.70 1.64 2.23 1.88 2.23 1.52 0.35 -0.23 -1.17 -2.11 -3.16 -4.22 -4.34 -5.27 -2.70 -5.51 -3.05 -3.75 -5.16 1.29 -1.52 6.09 -1.76 32.34 -1.76 l30.82 0 1.41 6.80 c0.82 3.63 1.88 7.27 2.34 7.97 0.59 0.70 0.35 1.88 -0.35 2.58 -1.05 1.05 -0.94 1.41 0.70 1.41 1.64 0 1.99 -0.59 1.41 -2.58z"/>
  <path d="M762.07 399.02 c0 -3.16 0.23 -4.45 0.47 -2.58 0.23 1.76 0.23 4.34 0 5.86 -0.23 1.41 -0.47 0 -0.47 -3.28z"/>
 </g>
 <g fill="#eeb652">
  <path d="M585.35 690 c-25.31 -15.12 -58.01 -35.98 -70.31 -44.77 -40.66 -29.18 -62.11 -54.96 -72.42 -86.84 l-2.58 -8.20 0 -119.88 0 -119.77 82.50 0.23 c64.80 0.23 82.62 0.70 83.09 1.88 0.23 0.70 -0.47 1.41 -1.76 1.41 -1.99 0 -2.11 1.88 -1.52 44.18 0.35 24.38 0.47 45.47 0.23 46.99 -0.47 2.34 -1.05 2.58 -9.14 2.58 -7.73 0 -8.67 -0.23 -8.67 -2.23 0 -4.57 -2.46 -4.92 -33.40 -5.74 -23.44 -0.70 -30.35 -0.47 -31.29 0.70 -0.70 0.70 -3.05 1.41 -5.16 1.41 -3.75 0 -3.98 -0.23 -3.98 -3.87 0 -2.93 1.05 -4.92 4.45 -8.20 3.87 -3.75 5.16 -4.34 9.96 -4.34 4.69 0 5.51 0.35 5.51 2.34 0 2.23 0.82 2.34 28.71 2.34 l28.71 0 0 -31.64 0 -31.64 -66.45 0.23 -66.56 0.35 0 104.88 c0 96.21 0.12 105.47 1.99 112.27 10.08 36.21 33.28 62.58 85.31 96.80 16.29 10.78 43.71 27.66 45 27.66 0.35 0 0.70 -14.53 0.70 -32.34 l0 -32.23 4.45 0.35 4.34 0.35 0.59 32.23 c0.59 27.89 0.70 24.49 0.94 -25.43 0.23 -56.72 0.23 -57.77 2.58 -57.77 2.23 0 2.34 0.94 2.58 37.85 0.23 24.26 0.70 36.33 1.41 33.98 0.59 -2.11 1.41 -3.87 1.99 -3.87 0.59 0 0.70 0.82 0.35 1.76 -0.47 1.05 0 1.76 0.82 1.76 1.29 0 1.29 0.23 -0.12 1.17 -0.94 0.59 -1.41 1.29 -1.05 1.64 0.23 0.35 1.17 0.23 1.88 -0.23 1.52 -0.94 2.46 -12.07 2.93 -33.63 l0.23 -15.23 0.70 19.34 0.70 19.34 0.23 -20.74 c0.12 -11.48 0.70 -20.86 1.17 -20.86 1.05 0 2.58 44.06 2.58 74.65 0 9.84 0.35 17.93 0.70 17.93 1.29 0 26.37 -15.35 40.90 -24.96 23.79 -15.82 40.43 -28.95 53.32 -41.84 13.48 -13.59 20.98 -23.91 28.13 -38.91 9.26 -19.34 8.67 -12.54 9.14 -118.48 0.23 -78.40 0.59 -94.57 1.88 -94.57 0.94 0 1.88 1.17 2.34 2.70 0.35 1.41 0.70 25.31 0.70 52.97 0 37.50 0.47 52.38 1.64 58.01 0.94 4.92 1.41 12.30 1.05 21.09 -0.35 7.38 -0.59 14.30 -0.47 15.23 0 0.94 0.35 11.25 0.59 22.85 0.47 19.69 0.35 21.33 -1.88 25.20 -1.41 2.34 -2.34 6.09 -2.34 8.79 0.12 3.40 -0.70 5.51 -2.58 7.62 -3.28 3.40 -5.04 8.20 -3.05 8.20 0.70 0 0.94 0.59 0.59 1.29 -0.47 0.70 -1.52 0.94 -2.46 0.59 -1.64 -0.59 -2.11 0.47 -1.76 4.10 0.23 1.76 -2.81 5.16 -4.45 5.16 -0.35 0 -0.59 0.59 -0.35 1.41 0.23 0.82 -0.12 1.52 -0.82 1.52 -0.59 0 -1.41 1.64 -1.88 3.63 -0.47 2.23 -4.10 7.15 -9.26 12.54 -4.57 4.92 -11.72 12.66 -15.94 17.11 l-7.62 8.20 7.03 -5.98 c8.55 -7.27 24.02 -23.20 26.95 -27.66 1.17 -1.76 2.34 -3.05 2.58 -2.70 1.17 1.17 -3.63 9.02 -7.73 12.77 -5.27 4.80 -16.64 17.93 -18.28 21.09 -0.59 1.29 -2.23 2.93 -3.52 3.63 -1.17 0.70 -3.05 2.11 -4.10 3.16 -3.16 3.40 -15.35 12.19 -33.98 24.49 -9.96 6.56 -20.39 13.48 -23.20 15.35 -3.05 2.11 -6.56 3.40 -8.91 3.40 -3.75 0 -7.73 2.81 -7.73 5.63 0 0.82 -0.70 1.41 -1.64 1.41 -0.94 0 -1.88 0.47 -2.11 0.94 -0.12 0.47 -4.80 3.63 -10.31 7.03 -14.06 8.55 -17.46 8.44 -33.40 -1.17z m55.43 -17.70 c1.17 -0.94 1.17 -1.41 0 -2.11 -1.76 -1.17 -6.91 1.88 -11.84 6.91 l-3.75 3.98 7.03 -3.87 c3.87 -1.99 7.73 -4.22 8.55 -4.92z m-196.99 -329.18 c-0.12 -15 -0.23 -3.05 -0.23 26.60 0 29.65 0.12 41.95 0.23 27.30 0.23 -14.65 0.23 -38.91 0 -53.91z"/>
  <path d="M659.06 588.28 c-20.74 -2.34 -26.25 -9.26 -26.25 -32.93 0 -7.73 -0.47 -12.77 -1.17 -12.77 -0.70 0 -1.17 -12.07 -1.17 -33.98 0 -28.95 0.23 -33.98 1.76 -33.98 2.93 0 3.28 7.38 2.58 47.23 -0.59 31.88 -0.35 39.38 1.05 44.18 0.94 3.28 2.34 5.86 3.05 5.86 1.05 0 1.05 -0.35 0.12 -1.29 -0.70 -0.70 -1.05 -2.11 -0.70 -2.93 0.35 -0.94 0 -1.64 -0.70 -1.64 -0.82 0 -1.29 -4.80 -1.29 -14.88 0.12 -14.18 0.23 -14.77 1.76 -11.02 0.94 2.11 1.52 4.34 1.17 4.80 -1.05 1.76 0.82 4.69 3.16 4.69 1.41 0 2.23 0.70 1.99 2.11 -0.47 4.92 0.12 6.21 2.23 5.16 3.05 -1.64 4.92 -0.47 4.92 3.05 0 5.86 2.58 10.66 6.91 12.66 4.45 2.11 17.70 3.05 24.61 1.88 2.93 -0.59 -0.12 -1.05 -9.49 -1.41 -15.94 -0.70 -17.81 -1.76 -20.27 -11.25 -1.64 -6.45 -1.17 -9.84 1.41 -9.84 1.29 0 1.64 1.17 1.41 4.45 -0.35 7.15 1.05 10.43 5.63 12.54 5.39 2.58 18.52 2.58 20.98 0 1.05 -0.94 2.23 -1.76 2.81 -1.76 0.59 0 1.88 -1.52 2.93 -3.52 1.64 -3.16 2.34 -3.52 7.50 -3.52 3.98 0 5.98 0.59 6.45 1.76 0.35 1.17 -0.12 1.76 -1.64 1.76 -1.17 0 -2.58 0.59 -2.93 1.17 -0.35 0.70 -0.12 1.17 0.47 1.17 1.76 0 1.64 5.04 -0.12 6.80 -1.05 1.05 -1.05 1.41 0.47 1.41 0.94 0 2.34 -1.64 3.05 -3.75 1.05 -3.63 1.17 -3.40 1.29 3.28 0.12 8.55 -1.64 11.37 -8.67 13.36 -6.45 1.76 -25.20 2.34 -35.27 1.17z"/>
  <path d="M744.14 586.41 c0 -0.59 0.82 -2.11 1.76 -3.28 1.41 -1.88 1.76 -1.99 1.76 -0.47 0 0.94 -0.82 2.46 -1.76 3.28 -0.94 0.82 -1.76 1.05 -1.76 0.47z"/>
  <path d="M499.45 578.09 l0.35 -7.85 3.87 -0.82 c2.23 -0.47 4.57 -1.41 5.27 -2.11 0.94 -0.94 1.88 -13.01 2.70 -36.21 l1.29 -34.80 0.35 36.91 0.35 36.91 1.29 -35.39 c1.29 -34.45 1.41 -35.39 3.98 -37.62 1.41 -1.29 2.58 -2.81 2.58 -3.52 0 -0.70 0.70 -1.76 1.64 -2.23 0.82 -0.47 1.88 -1.76 2.23 -2.70 0.47 -1.41 0.70 -1.29 0.70 0.35 0.12 1.05 0.70 1.99 1.29 1.99 0.70 0 1.17 3.05 1.17 6.91 0 11.37 -1.29 10.66 21.21 10.66 13.13 0 19.80 0.47 19.80 1.29 0 0.59 0.59 0.82 1.17 0.47 0.70 -0.35 1.17 -1.52 1.17 -2.46 0 -1.41 -3.52 -1.64 -21.09 -1.64 l-21.09 0 0 -9.38 c0 -5.51 0.47 -9.38 1.17 -9.38 0.70 0 1.17 3.16 1.17 7.03 0 3.87 0.47 7.03 1.17 7.03 0.70 0 1.17 0.82 1.17 1.76 0 1.52 2.93 1.76 19.34 1.76 22.15 0 20.98 -0.70 20.27 11.84 l-0.35 6.33 -18.16 0.35 c-11.02 0.12 -19.22 0.82 -20.74 1.64 -2.58 1.29 -2.70 1.76 -2.70 20.16 0 10.43 0.47 19.45 0.94 20.16 1.41 2.23 5.74 3.98 9.49 3.98 l3.63 0 0 8.20 0 8.20 -23.44 0 -23.55 0 0.35 -7.85z m32.58 -6.21 c-1.41 -0.94 -1.88 -5.74 -2.46 -27.19 l-0.59 -26.13 -0.23 24.26 c-0.23 23.79 0.59 30.23 3.52 30.23 1.05 0 0.94 -0.35 -0.23 -1.17z"/>
  <path d="M750.23 575.86 c0.82 -1.76 1.64 -2.46 1.88 -1.76 0.59 1.88 -0.59 4.80 -1.99 4.80 -0.82 0 -0.70 -1.17 0.12 -3.05z"/>
  <path d="M755.04 564.96 c0.94 -2.70 1.52 -3.28 1.76 -1.88 0.23 1.17 -0.35 2.93 -1.41 3.87 -1.64 1.76 -1.76 1.52 -0.35 -1.99z"/>
  <path d="M760.20 546.68 c0.82 -5.74 1.52 -6.80 1.52 -2.23 0 1.88 -0.59 4.22 -1.17 5.16 -0.70 1.17 -0.82 0.23 -0.35 -2.93z"/>
 </g>
 <g fill="#e2a53c">
  <path d="M590.86 645.47 c-0.12 -20.04 -0.70 -32.70 -1.41 -33.16 -0.82 -0.47 -1.17 -33.98 -1.17 -96.80 l0 -95.98 -28.36 0.23 -28.48 0.35 -0.35 3.28 c-0.35 2.70 -0.94 3.16 -3.87 3.16 -2.70 0 -6.21 -2.23 -14.53 -9.02 -9.49 -7.85 -11.02 -9.61 -11.02 -12.77 -0.12 -3.05 0.94 -4.69 6.09 -9.02 4.10 -3.52 7.85 -5.63 10.90 -6.09 l4.57 -0.82 -4.69 5.04 c-4.22 4.57 -4.34 4.69 -0.82 1.88 3.75 -3.05 8.20 -4.34 6.68 -1.99 -1.17 1.76 3.16 2.23 32.34 2.70 27.89 0.59 31.64 1.17 33.28 5.27 0.23 0.82 0 1.17 -0.59 0.82 -0.70 -0.35 -1.17 -0.12 -1.17 0.59 0 0.94 2.23 1.29 6.91 0.94 l6.91 -0.35 0.47 69.14 c0.12 38.09 0.12 98.55 -0.12 134.53 -0.35 55.55 -0.59 65.27 -1.99 65.27 -0.94 0 -1.99 0.70 -2.34 1.64 -0.35 0.94 -1.41 1.41 -2.23 1.17 -1.29 -0.59 -1.64 -6.91 -1.76 -32.93 0 -17.81 -0.47 -32.93 -0.94 -33.63 -0.47 -0.70 -1.05 14.53 -1.41 33.87 l-0.59 35.16 -0.35 -32.46z"/>
  <path d="M527.81 393.87 c-0.23 -0.23 -0.47 -1.52 -0.47 -2.93 0 -2.11 0.12 -2.11 1.52 -0.35 1.17 1.64 4.45 1.99 23.67 2.23 l22.27 0.35 -23.20 0.59 c-12.77 0.35 -23.55 0.35 -23.79 0.12z"/>
 </g>
 <g fill="#960837">
  <path d="M311.84 821.95 c-4.34 -3.52 -6.09 -9.38 -4.80 -15.12 1.64 -7.27 5.39 -9.84 20.98 -14.18 4.10 -1.17 7.73 -2.81 7.97 -3.63 0.94 -2.46 -0.70 -9.49 -2.70 -11.48 -2.11 -2.11 -9.96 -2.34 -11.95 -0.35 -0.82 0.82 -1.41 2.81 -1.41 4.57 0 3.28 -1.76 4.57 -6.56 4.57 -2.81 0 -2.93 -0.35 -2.58 -6.09 0.35 -5.98 0.59 -6.33 5.51 -9.02 4.34 -2.34 6.91 -2.93 15.47 -2.93 10.20 -0.12 10.43 0 14.18 3.75 l3.87 3.75 0.59 19.10 c0.35 10.43 1.05 19.69 1.64 20.51 0.47 0.70 2.11 1.41 3.75 1.41 4.10 0 3.52 3.05 -0.94 5.86 -5.04 3.05 -11.95 3.05 -15 0 -1.29 -1.29 -2.93 -2.34 -3.52 -2.34 -0.70 0 -3.16 1.05 -5.51 2.34 -6.45 3.40 -14.41 3.16 -18.98 -0.70z m21.45 -7.85 c1.52 -1.17 2.23 -3.75 2.70 -9.38 0.70 -8.79 0.23 -9.26 -7.15 -6.21 -7.03 2.93 -9.61 9.26 -5.86 14.53 1.99 2.93 7.03 3.40 10.31 1.05z"/>
  <path d="M402.77 822.30 c-4.57 -3.75 -5.51 -8.44 -5.51 -28.59 l0 -17.93 -2.81 0 c-1.64 0 -3.16 -0.47 -3.52 -1.05 -1.05 -1.52 0.47 -4.80 2.11 -4.80 2.23 0 7.73 -6.33 8.79 -10.08 0.70 -2.93 1.52 -3.40 5.74 -3.75 l4.92 -0.35 0 6.45 0 6.56 7.03 0 c6.91 0 7.03 0 7.03 3.40 0 3.16 -0.35 3.40 -6.45 4.22 -5.63 0.70 -6.56 1.17 -7.15 3.75 -1.29 4.92 0.23 31.88 1.88 33.75 0.94 1.17 3.52 1.76 7.15 1.76 6.21 0 6.33 0.12 4.45 3.75 -3.05 5.74 -17.93 7.62 -23.67 2.93z"/>
  <path d="M253.36 821.25 c0.23 -1.64 1.41 -2.81 3.28 -3.28 l2.93 -0.70 0 -32.11 0 -32.23 -3.16 -0.35 c-2.58 -0.35 -3.28 -1.05 -3.28 -3.28 l0 -2.81 26.95 0 26.95 0 0 8.91 0 8.79 -3.16 -0.35 c-2.46 -0.23 -3.40 -1.17 -4.10 -4.22 -1.41 -5.27 -4.45 -6.33 -14.41 -5.27 l-8.20 0.94 0.23 12.89 0.23 12.89 4.92 0.35 c7.62 0.59 10.08 -0.47 10.78 -4.45 0.59 -2.81 1.41 -3.52 3.75 -3.52 l2.93 0 0 11.84 0 11.72 -3.16 -0.35 c-2.58 -0.23 -3.40 -1.05 -3.63 -3.52 -0.35 -3.16 -0.59 -3.28 -7.97 -3.28 -5.04 0 -7.73 0.47 -8.09 1.52 -0.35 0.70 -0.23 6.91 0.23 13.71 l0.94 12.30 3.52 0.59 c3.16 0.59 3.63 1.17 3.16 4.69 -0.12 0.70 -6.45 1.17 -16.17 1.17 -15.70 0 -15.82 0 -15.47 -2.58z"/>
  <path d="M360.94 822.77 c0 -2.70 1.64 -4.80 3.63 -4.80 2.11 0 2.23 -1.17 2.23 -20.39 0 -20.27 0 -20.51 -2.58 -20.86 -1.76 -0.23 -2.81 -1.29 -3.05 -2.93 -0.35 -2.34 0.23 -2.58 7.62 -3.28 4.34 -0.35 8.91 -1.17 9.96 -1.76 1.17 -0.70 2.34 -1.17 2.70 -1.17 0.23 0 0.70 11.25 0.82 24.96 0.35 24.73 0.35 24.84 3.05 25.20 1.88 0.35 2.58 1.17 2.58 3.28 l0 2.81 -13.48 0 c-7.38 0 -13.48 -0.47 -13.48 -1.05z"/>
  <path d="M429.38 822.07 c-0.94 -2.23 0.35 -4.10 2.93 -4.10 3.05 0 3.16 -1.76 2.70 -38.32 -0.47 -31.52 -0.47 -31.88 -3.05 -32.23 -1.52 -0.23 -2.46 -1.17 -2.46 -2.70 0 -1.88 1.29 -2.58 6.45 -3.75 3.52 -0.70 8.44 -1.41 10.90 -1.41 l4.34 -0.12 0 16.41 c0 9.02 0.23 16.41 0.59 16.41 0.35 0 2.70 -1.05 5.27 -2.34 9.14 -4.69 21.91 -2.23 26.02 4.92 1.05 1.76 1.76 9.26 2.11 22.62 l0.59 19.80 2.93 0.70 c1.88 0.47 3.05 1.64 3.28 3.28 0.35 2.58 0.12 2.58 -13.13 2.58 -13.01 0 -13.59 -0.12 -13.59 -2.46 0 -1.41 0.94 -2.70 2.34 -3.05 2.23 -0.59 2.34 -1.64 2.34 -18.75 0 -17.58 -0.12 -18.16 -2.93 -20.86 -3.52 -3.63 -8.55 -3.75 -12.77 -0.47 l-3.05 2.34 0 18.63 0 18.52 2.93 0.70 c1.88 0.47 2.93 1.52 2.93 3.05 0 2.23 -0.82 2.34 -13.48 2.34 -10.78 0 -13.71 -0.35 -14.18 -1.76z"/>
  <path d="M368.55 755.27 c-5.63 -5.51 -2.93 -13.24 5.04 -14.30 3.75 -0.47 5.16 -0.12 7.15 1.88 3.63 3.63 3.28 9.84 -0.59 12.89 -4.10 3.28 -8.09 3.05 -11.60 -0.47z"/>
  <path d="M614.30 547.03 l0.35 -130.43 31.88 -0.35 31.88 -0.23 0.35 3.52 0.35 3.52 6.56 -5.63 c3.63 -3.16 8.55 -7.27 10.90 -9.26 l4.34 -3.52 -8.79 -7.15 c-9.14 -7.62 -12.89 -8.91 -13.95 -4.92 -0.59 2.34 -1.41 2.34 -32.11 2.11 l-31.41 -0.35 -0.35 -35.51 -0.23 -35.39 69.73 0 69.84 0 -0.35 109.92 c-0.47 122.93 0.12 114.02 -9.14 133.59 -13.24 27.89 -35.63 50.16 -80.16 79.92 -11.13 7.38 -40.55 25.55 -47.46 29.30 l-2.46 1.29 0.23 -130.43z m76.76 36.33 c2.70 -0.59 5.51 -1.88 6.21 -2.70 1.17 -1.41 5.86 -14.18 5.86 -16.05 0 -0.47 -2.11 -0.94 -4.69 -0.94 -3.98 0 -4.92 0.47 -6.09 3.05 -2.23 4.80 -6.68 6.33 -18.75 6.33 -12.54 0 -15.94 -1.29 -18.75 -7.03 -1.88 -3.75 -2.11 -8.79 -2.11 -52.15 0 -29.30 0.47 -49.69 1.17 -52.38 1.76 -6.21 6.21 -8.91 15.94 -9.84 10.78 -0.94 17.11 0.82 21.21 5.98 2.58 3.16 4.10 4.10 7.15 4.10 4.45 0 4.45 -0.70 1.64 -11.02 -1.99 -7.03 -1.99 -7.03 -7.85 -8.55 -8.20 -2.11 -30.94 -1.99 -38.55 0.23 -8.79 2.58 -15.47 8.67 -17.70 16.05 -2.46 8.55 -2.58 98.55 -0.12 106.88 2.34 7.62 7.15 13.48 13.36 16.17 9.49 4.22 29.41 5.16 42.07 1.88z"/>
 </g>
 <g fill="#0f2854">
  <path d="M289.45 892.62 c-3.87 -1.29 -4.10 -1.64 -4.45 -7.50 -0.23 -5.04 0 -6.21 1.52 -6.21 0.94 0 2.34 1.29 2.93 2.81 2.34 6.21 10.90 8.55 15.23 4.22 4.92 -4.92 2.46 -9.49 -8.55 -15.82 -7.85 -4.45 -10.20 -7.85 -10.20 -14.88 0 -4.80 0.59 -6.33 3.28 -9.14 3.87 -3.87 11.25 -5.39 19.57 -4.22 l5.27 0.82 0 6.45 c0 7.38 -1.99 8.44 -4.69 2.46 -1.41 -2.93 -2.58 -3.87 -5.51 -4.10 -5.51 -0.59 -8.55 1.52 -8.55 5.63 0 2.81 0.94 4.10 5.04 6.68 14.77 9.38 16.05 10.78 16.05 18.63 0 11.72 -13.48 18.75 -26.95 14.18z"/>
  <path d="M649.57 892.50 c-6.91 -2.23 -11.60 -5.86 -15.23 -12.19 -2.58 -4.34 -3.16 -6.80 -3.16 -13.01 0 -9.14 1.99 -13.48 8.67 -19.22 7.38 -6.33 20.16 -8.44 32.34 -5.39 l5.16 1.29 0 6.91 c0 7.97 -1.88 9.14 -4.69 3.05 -2.23 -4.69 -6.09 -6.68 -12.89 -6.68 -10.55 0 -16.41 6.33 -16.41 17.81 0 13.01 6.09 20.86 16.76 21.80 6.33 0.47 13.71 -1.88 13.71 -4.45 0 -0.70 1.05 -1.17 2.34 -1.17 2.46 0 2.93 1.88 1.64 6.68 -1.41 5.27 -17.70 7.85 -28.24 4.57z"/>
  <path d="M330.82 890.63 c-5.86 -3.05 -9.49 -8.32 -10.43 -15.47 -0.94 -6.45 1.52 -12.30 7.38 -17.34 3.98 -3.52 4.34 -3.63 14.18 -3.28 l10.20 0.35 0.35 5.63 c0.35 5.98 -1.17 7.27 -3.40 2.93 -1.99 -3.75 -3.28 -4.45 -8.44 -4.45 -3.40 0 -5.39 0.82 -7.97 3.40 -2.93 3.05 -3.40 4.34 -3.40 10.08 0 6.09 0.35 7.03 4.10 10.78 4.10 4.10 4.34 4.22 11.72 3.52 5.63 -0.59 7.62 -0.35 7.62 0.70 -0.12 3.52 -2.34 4.80 -9.61 5.27 -5.86 0.23 -8.44 -0.12 -12.30 -2.11z"/>
  <path d="M356.25 891.91 c0 -0.59 0.82 -1.64 1.76 -2.46 2.70 -2.23 2.58 -29.88 -0.12 -31.41 -3.63 -1.99 -0.47 -3.75 6.68 -3.75 6.80 0 8.67 1.17 5.16 3.28 -1.17 0.59 -1.99 2.93 -2.11 6.21 l-0.23 5.16 8.55 0.35 8.44 0.35 0 -5.86 c0 -3.40 -0.59 -5.98 -1.41 -6.21 -0.70 -0.23 -0.94 -1.17 -0.47 -1.88 1.29 -2.11 13.59 -1.88 13.59 0.23 0 0.94 -0.82 1.88 -1.76 2.34 -1.41 0.47 -1.76 3.40 -1.76 15.47 0 13.71 0.12 14.77 2.34 15.35 1.29 0.35 2.34 1.41 2.34 2.23 0 1.29 -1.99 1.64 -8.20 1.64 -8.20 0 -9.73 -0.82 -6.45 -3.52 1.17 -0.94 1.76 -3.63 1.76 -7.85 l0 -6.33 -8.44 0.35 -8.44 0.35 0.23 5.86 c0.23 3.40 1.05 6.45 2.11 7.15 3.52 2.81 1.64 3.98 -5.98 3.98 -4.22 0 -7.62 -0.47 -7.62 -1.05z"/>
  <path d="M409.22 889.92 c-9.14 -5.51 -12.07 -16.52 -6.91 -26.25 3.63 -6.91 8.55 -9.38 18.87 -9.38 9.14 0 14.06 2.34 17.70 8.67 2.58 4.22 2.70 14.18 0.23 18.87 -5.63 10.90 -19.10 14.53 -29.88 8.09z m16.52 -2.93 c3.87 -1.76 6.68 -7.03 6.68 -12.54 0 -9.96 -4.45 -15.47 -12.54 -15.47 -7.27 0 -10.90 3.98 -10.90 11.95 0 12.54 7.97 20.04 16.76 16.05z"/>
  <path d="M457.03 891.68 c-7.38 -2.93 -11.72 -9.96 -11.72 -18.87 0 -4.80 0.70 -7.27 2.93 -10.66 4.10 -5.98 8.32 -7.85 17.81 -7.85 6.56 0 8.79 0.47 12.19 2.81 15.82 10.78 6.68 36.09 -12.89 35.74 -2.93 0 -6.68 -0.59 -8.32 -1.17z m14.18 -4.57 c5.04 -2.70 7.62 -15.23 4.45 -21.45 -5.04 -9.84 -19.69 -8.44 -21.68 2.11 -2.34 12.66 7.97 24.26 17.23 19.34z"/>
  <path d="M489.84 891.21 c0 -1.05 0.82 -2.11 1.76 -2.46 2.58 -1.05 2.58 -29.53 0 -30.47 -1.41 -0.59 -1.52 -1.17 -0.47 -2.34 1.88 -2.23 13.95 -2.23 13.95 0 0 0.94 -0.82 1.88 -1.76 2.34 -1.41 0.47 -1.76 3.28 -1.76 14.77 l0 14.06 5.16 0 c4.22 0 5.39 -0.47 5.98 -2.34 0.82 -2.70 4.10 -3.16 4.10 -0.70 0 0.82 -0.35 3.28 -0.70 5.27 l-0.70 3.63 -12.77 0 c-10.66 0 -12.77 -0.35 -12.77 -1.76z"/>
  <path d="M523.01 891.80 c-3.40 -1.41 -2.34 -5.86 1.52 -5.86 1.41 0 3.05 0.59 3.40 1.17 1.05 1.76 7.15 1.41 8.79 -0.59 2.11 -2.58 0.94 -5.51 -3.52 -8.32 -9.49 -6.09 -11.72 -8.67 -11.72 -13.48 0 -7.50 3.87 -10.43 13.36 -10.43 4.22 0 7.85 0.35 8.09 0.94 0.35 0.47 0.23 2.93 -0.23 5.51 l-0.82 4.69 -2.11 -3.16 c-2.34 -3.63 -7.62 -4.45 -9.96 -1.64 -2.11 2.46 -0.47 4.80 5.63 8.09 7.73 4.34 10.08 7.15 10.08 12.77 0 3.87 -0.70 5.27 -3.87 8.09 -3.16 2.81 -4.80 3.40 -9.96 3.28 -3.28 0 -7.27 -0.47 -8.67 -1.05z"/>
  <path d="M571.17 890.74 c-7.38 -4.57 -8.09 -15.12 -1.41 -21.21 3.28 -3.05 3.52 -3.63 2.23 -7.15 -1.88 -5.51 -1.64 -7.50 1.76 -11.48 2.70 -3.16 3.75 -3.63 9.14 -3.63 7.15 0 9.73 1.64 10.78 6.56 0.59 3.16 0 4.45 -3.52 8.32 l-4.10 4.69 4.57 4.45 c4.92 4.80 6.56 4.69 7.27 -0.59 0.23 -2.46 1.05 -2.93 4.92 -3.28 l4.57 -0.35 -3.75 6.56 -3.75 6.68 2.58 2.81 c1.41 1.52 4.45 3.40 6.56 4.22 2.46 0.94 3.87 2.11 3.63 3.28 -0.59 2.46 -10.20 2.23 -15.23 -0.47 -3.87 -2.11 -4.10 -2.11 -7.97 0.35 -5.16 3.16 -13.36 3.28 -18.28 0.23z m15.82 -5.63 c2.34 -2.11 2.34 -2.11 -3.28 -8.55 -5.04 -5.51 -5.98 -6.21 -7.62 -4.80 -3.75 3.16 -1.76 12.19 3.16 14.18 3.87 1.52 5.04 1.41 7.73 -0.82z m-1.05 -25.08 c0.82 -1.29 1.05 -3.75 0.70 -5.39 -0.59 -2.23 -1.41 -2.81 -3.98 -2.46 -3.87 0.47 -4.69 3.40 -2.11 7.38 2.34 3.52 3.75 3.63 5.39 0.47z"/>
  <path d="M694.34 891.33 c-1.99 -0.82 -5.27 -3.52 -7.38 -5.86 -3.28 -3.75 -3.75 -5.16 -3.75 -10.78 0 -13.48 5.39 -18.98 19.57 -19.92 7.85 -0.59 9.61 -0.35 13.01 1.76 6.33 4.10 8.67 8.91 8.20 17.34 -0.47 8.55 -2.93 12.42 -9.84 16.41 -5.27 3.05 -14.18 3.52 -19.80 1.05z m16.17 -5.51 c6.56 -5.04 6.56 -17.70 0.23 -24.02 -3.98 -3.87 -12.07 -3.98 -15.70 0 -10.43 11.13 3.75 33.28 15.47 24.02z"/>
  <path d="M727.73 891.91 c0 -0.59 0.82 -1.64 1.76 -2.46 1.41 -1.17 1.76 -4.57 1.76 -16.52 0 -10.43 -0.47 -15.12 -1.29 -15.12 -0.94 0 -0.94 -0.59 0.12 -1.76 1.99 -2.34 12.89 -2.46 12.89 -0.12 0 0.94 -0.82 1.88 -1.76 2.34 -1.41 0.47 -1.76 3.28 -1.76 14.77 l0 14.06 5.16 0 c3.52 0 5.39 -0.59 5.86 -1.76 0.35 -0.94 1.41 -1.76 2.46 -1.76 1.88 0 2.23 2.34 1.05 6.80 -0.70 2.46 -1.29 2.58 -13.48 2.58 -7.03 0 -12.77 -0.47 -12.77 -1.05z"/>
  <path d="M757.73 891.91 c-0.35 -0.47 0.35 -1.88 1.64 -3.05 2.11 -1.88 2.34 -3.63 2.34 -16.05 0 -11.37 -0.35 -14.06 -1.76 -14.53 -1.41 -0.59 -1.52 -1.17 -0.47 -2.34 1.99 -2.34 13.95 -2.23 13.95 0.12 0 0.94 -0.82 1.76 -1.76 1.76 -1.52 0 -1.76 2.46 -1.76 14.65 l0 14.65 4.80 0 c3.75 0 4.92 -0.47 5.39 -2.34 0.35 -1.29 1.64 -2.34 2.81 -2.34 1.76 0 2.11 0.59 1.52 3.87 -0.35 1.99 -0.82 4.45 -1.17 5.27 -0.47 1.64 -24.49 2.11 -25.55 0.35z"/>
  <path d="M787.50 891.91 c0 -0.59 0.82 -1.64 1.76 -2.46 2.23 -1.88 2.58 -31.17 0.35 -31.88 -0.70 -0.23 -0.94 -1.17 -0.47 -1.88 0.59 -0.94 4.69 -1.41 12.54 -1.41 l11.60 0 0 4.69 c0 3.40 -0.47 4.69 -1.76 4.69 -0.94 0 -1.76 -0.82 -1.76 -1.76 0 -1.29 -1.41 -1.76 -5.27 -1.76 l-5.27 0 0 4.69 0 4.69 5.86 0 5.86 0 0 4.10 c0 4.22 -0.94 5.04 -3.16 2.81 -0.70 -0.70 -2.70 -1.05 -4.57 -0.82 -3.16 0.35 -3.40 0.70 -3.75 5.98 l-0.35 5.51 5.39 0 c3.63 0 5.51 -0.59 5.98 -1.76 0.47 -0.94 1.76 -1.76 3.05 -1.76 1.88 0 2.23 0.59 1.64 2.70 -0.35 1.41 -0.70 3.52 -0.70 4.69 0 1.76 -1.41 1.99 -13.48 1.99 -7.38 0 -13.48 -0.47 -13.48 -1.05z"/>
  <path d="M830.86 891.68 c-7.50 -3.16 -11.72 -9.96 -11.72 -18.98 0 -7.50 3.05 -12.89 9.38 -16.29 3.28 -1.76 6.09 -2.11 14.65 -1.88 l10.55 0.35 0 5.27 c0 5.98 -2.11 7.03 -4.45 2.34 -1.29 -2.46 -2.46 -2.93 -7.50 -3.28 -7.50 -0.47 -10.55 1.05 -12.77 6.21 -2.23 5.39 -2.11 8.32 0.70 14.06 2.70 5.51 8.32 9.26 12.89 8.67 2.58 -0.47 2.93 -1.17 3.28 -5.51 0.23 -3.63 -0.12 -5.16 -1.52 -5.63 -1.41 -0.59 -1.52 -1.05 -0.47 -2.34 1.88 -2.23 13.95 -2.23 13.95 0 0 0.94 -0.82 1.88 -1.76 2.34 -1.29 0.47 -1.76 2.46 -1.76 7.03 0 3.75 -0.59 6.80 -1.41 7.27 -2.34 1.41 -18.87 1.76 -22.03 0.35z"/>
  <path d="M862.50 891.21 c0 -1.05 0.82 -2.11 1.76 -2.46 1.41 -0.59 1.76 -3.40 1.76 -15.23 0 -11.95 -0.35 -14.77 -1.76 -15.23 -0.94 -0.47 -1.76 -1.41 -1.76 -2.34 0 -1.29 2.70 -1.64 12.89 -1.64 l12.89 0 0 4.69 c0 4.80 -2.46 6.68 -3.98 2.81 -0.47 -1.29 -1.99 -1.64 -5.04 -1.41 -4.22 0.35 -4.45 0.59 -4.80 4.80 l-0.35 4.34 6.09 0 c5.63 0 5.98 0.12 5.27 2.70 -0.35 1.41 -0.70 3.63 -0.70 4.92 -0.12 2.23 -0.12 2.23 -1.64 0.23 -1.17 -1.52 -2.81 -1.99 -5.63 -1.76 -3.75 0.35 -3.87 0.59 -4.22 5.98 l-0.35 5.51 5.86 0 c3.16 0 6.21 -0.47 6.56 -1.17 1.76 -2.81 4.10 -1.05 4.10 2.93 l0 4.10 -13.48 0 c-11.37 0 -13.48 -0.23 -13.48 -1.76z"/>
  <path d="M896.13 892.15 c-1.41 -0.35 -1.99 -1.41 -1.76 -3.05 0.35 -2.70 2.11 -2.93 9.73 -1.41 2.23 0.47 4.34 0.12 5.86 -0.94 1.88 -1.52 2.11 -2.11 0.94 -4.69 -0.82 -1.76 -3.52 -4.10 -6.09 -5.51 -6.91 -3.52 -9.49 -6.68 -9.49 -11.95 0 -7.38 3.87 -10.31 13.36 -10.31 4.22 0 7.85 0.35 8.09 0.94 0.35 0.47 0.23 2.93 -0.23 5.51 l-0.82 4.69 -2.11 -3.16 c-1.29 -1.99 -3.16 -3.28 -4.80 -3.28 -8.20 0 -8.67 4.45 -0.82 8.91 9.14 5.27 10.78 7.27 10.78 13.13 0 4.10 -0.70 5.74 -3.40 8.55 -3.05 3.05 -4.22 3.40 -10.31 3.28 -3.75 -0.12 -7.73 -0.35 -8.91 -0.70z"/>
  <path d="M542.58 823.01 c-15 -5.27 -24.02 -17.34 -25.43 -34.34 -1.99 -23.32 14.06 -41.60 37.73 -43.13 7.85 -0.47 24.61 2.11 26.48 4.10 0.35 0.59 1.05 4.80 1.41 9.49 l0.70 8.44 -3.52 0 c-2.34 0 -3.40 -0.59 -3.40 -1.88 0 -6.80 -9.38 -13.36 -18.87 -13.36 -13.24 0 -21.68 10.08 -22.97 27.42 -1.64 21.91 9.14 38.20 25.20 38.20 4.92 0 14.30 -3.75 14.30 -5.74 0 -1.88 5.74 -7.15 7.97 -7.15 1.88 0 1.99 0.70 1.29 7.73 -0.47 4.57 -1.41 8.20 -2.34 8.79 -5.86 3.63 -29.77 4.57 -38.55 1.41z"/>
  <path d="M731.84 823.59 c-4.69 -1.76 -5.27 -2.70 -5.27 -10.55 0 -5.98 0.23 -6.80 2.34 -6.80 1.52 0 2.93 1.64 4.57 5.16 1.88 4.45 3.05 5.51 7.15 6.68 4.34 1.29 5.04 1.17 7.97 -0.94 3.87 -2.93 4.57 -6.80 1.88 -9.84 -1.17 -1.29 -5.74 -4.22 -10.08 -6.56 -12.54 -6.56 -15.94 -13.48 -11.60 -23.20 1.88 -4.22 3.40 -5.86 7.38 -7.62 5.51 -2.46 17.46 -3.16 22.50 -1.17 2.81 1.05 3.05 1.76 3.05 7.62 0 5.39 -0.35 6.45 -2.11 6.45 -1.29 0 -2.93 -1.64 -4.10 -4.22 -1.99 -3.98 -2.11 -4.10 -8.09 -3.75 -4.92 0.23 -6.33 0.82 -6.56 2.46 -1.05 5.27 0.82 7.50 10.20 12.42 11.37 5.86 14.18 9.38 14.18 17.58 0 4.92 -0.59 6.56 -3.75 10.20 -2.11 2.34 -5.51 5.04 -7.62 5.86 -4.45 1.88 -16.99 1.99 -22.03 0.23z"/>
  <path d="M780.82 822.66 c-5.16 -3.16 -6.21 -7.85 -6.21 -28.95 l0 -17.93 -3.52 0 c-3.75 0 -4.80 -2.34 -1.99 -4.57 0.70 -0.70 3.16 -2.58 5.16 -4.34 2.11 -1.64 4.34 -4.69 4.80 -6.68 0.82 -3.40 1.41 -3.75 5.86 -4.10 l4.92 -0.35 0 6.45 0 6.56 6.80 0 6.91 0 -0.59 3.52 c-0.47 2.93 -1.05 3.52 -3.75 3.52 -1.88 0 -4.80 0.59 -6.45 1.17 l-3.16 1.17 0.47 16.88 c0.47 19.69 0.82 20.63 9.26 20.63 6.21 0 6.33 0.12 4.57 3.63 -3.16 5.74 -16.17 7.73 -23.09 3.40z"/>
  <path d="M843.52 823.13 c-6.21 -3.28 -8.67 -13.24 -5.16 -20.16 2.23 -4.22 9.61 -8.20 18.52 -10.08 8.32 -1.64 9.84 -3.28 8.67 -9.26 -1.05 -5.63 -3.52 -7.85 -8.79 -7.85 -4.92 0 -7.15 1.64 -7.15 5.39 0 3.40 -2.70 5.39 -6.68 4.92 -3.05 -0.35 -3.28 -0.70 -3.05 -5.63 0.35 -6.56 3.63 -9.84 12.07 -11.60 9.73 -2.11 16.76 -1.64 21.21 1.41 6.09 4.10 6.91 6.80 6.91 23.09 0 8.09 0.35 16.64 0.70 19.10 0.70 3.87 1.17 4.34 4.10 4.34 4.69 0 4.45 2.93 -0.35 5.86 -4.57 2.81 -11.25 3.05 -14.53 0.59 -2.93 -2.23 -6.45 -2.23 -10.55 0 -4.34 2.23 -11.84 2.23 -15.94 -0.12z m20.39 -9.49 c1.64 -1.41 2.11 -3.63 2.11 -9.38 l0 -7.62 -3.75 0.82 c-8.44 1.76 -12.54 7.15 -10.20 13.13 0.70 1.76 1.88 3.63 2.58 4.10 2.34 1.52 7.03 1.05 9.26 -1.05z"/>
  <path d="M589.45 822.89 c0 -0.59 1.29 -2.23 2.93 -3.75 l2.93 -2.70 0 -33.87 0 -33.75 -2.93 -1.17 c-5.86 -2.23 -2.93 -5.04 7.73 -7.62 4.10 -0.94 8.20 -1.76 9.02 -1.76 1.05 0 1.41 4.22 1.41 16.99 0 9.38 0.35 16.99 0.82 16.99 0.35 0 1.76 -0.94 2.93 -1.99 3.28 -2.93 16.64 -3.63 21.45 -1.05 7.15 3.87 8.09 7.27 8.55 29.18 l0.47 19.57 2.81 0 c2.23 0 2.81 0.59 2.81 2.93 l0 2.93 -13.48 0 c-7.50 0 -13.48 -0.47 -13.48 -1.05 0 -0.59 1.29 -2.11 2.93 -3.40 2.81 -2.23 2.93 -2.70 2.93 -17.34 0 -18.52 -1.05 -23.09 -5.86 -25.08 -2.93 -1.17 -4.34 -1.17 -7.97 0.23 l-4.34 1.64 -0.35 19.45 -0.23 19.45 2.93 0.70 c1.88 0.47 2.93 1.52 2.93 3.05 0 2.23 -0.82 2.34 -13.48 2.34 -7.38 0 -13.48 -0.47 -13.48 -0.94z"/>
  <path d="M653.91 820.90 c0 -2.11 0.59 -2.93 2.34 -2.93 2.23 0 2.34 -0.82 2.34 -19.92 l0 -19.92 -3.05 -1.17 c-1.64 -0.70 -2.81 -1.88 -2.58 -2.70 0.70 -1.88 11.02 -5.39 16.52 -5.51 3.98 0 4.34 0.23 4.34 3.40 l0 3.40 3.98 -3.98 c3.40 -3.40 4.80 -3.98 9.38 -3.98 l5.39 0 0 6.21 c0 7.97 -1.05 9.49 -5.16 7.85 -5.27 -1.99 -8.55 -1.41 -11.25 1.99 -2.23 2.81 -2.34 4.34 -2.11 18.40 0.35 15.23 0.35 15.23 3.28 15.94 1.88 0.47 3.05 1.64 3.28 3.28 0.35 2.58 0.12 2.58 -13.13 2.58 l-13.59 0 0 -2.93z"/>
  <path d="M696.09 821.60 c0 -1.29 1.05 -2.70 2.34 -3.05 2.23 -0.70 2.34 -1.76 2.34 -21.09 0 -20.16 0 -20.39 -2.58 -20.74 -1.76 -0.23 -2.70 -1.17 -2.70 -2.70 0 -1.88 1.29 -2.58 7.03 -3.75 3.87 -0.70 8.44 -1.64 10.20 -1.99 l3.28 -0.59 0.23 24.73 0.35 24.84 2.93 0.70 c1.88 0.47 3.05 1.64 3.28 3.28 0.35 2.58 0.12 2.58 -13.13 2.58 -12.66 0 -13.59 -0.12 -13.59 -2.23z"/>
  <path d="M807.42 821.60 c0 -1.29 1.05 -2.70 2.34 -3.05 2.23 -0.70 2.34 -1.76 2.34 -21.09 l0 -20.27 -3.05 -0.70 c-1.99 -0.59 -2.81 -1.41 -2.58 -2.81 0.23 -1.41 2.46 -2.34 7.97 -3.40 4.22 -0.82 8.79 -1.41 10.31 -1.52 l2.58 0 0 24.02 0 23.91 3.52 1.88 c1.99 1.05 3.52 2.58 3.52 3.52 0 1.41 -2.34 1.76 -13.48 1.76 -12.54 0 -13.48 -0.12 -13.48 -2.23z"/>
  <path d="M890.63 822.89 c0 -0.59 1.29 -2.23 2.93 -3.75 2.93 -2.70 2.93 -3.05 2.93 -20.63 0 -9.84 -0.35 -18.63 -0.70 -19.69 -0.35 -1.05 -1.76 -1.88 -3.05 -1.88 -1.64 0 -2.23 -0.70 -1.88 -2.46 0.23 -2.11 1.88 -2.93 8.55 -4.69 10.66 -2.81 11.13 -2.81 11.13 0.82 l0 2.93 3.75 -2.70 c2.93 -1.99 5.86 -2.81 12.19 -3.05 8.20 -0.47 8.55 -0.35 13.01 3.63 l4.45 4.10 0.70 20.39 c0.47 11.13 0.82 20.63 0.94 21.09 0.12 0.47 1.29 0.94 2.81 1.17 1.64 0.23 2.70 1.29 2.93 3.05 0.35 2.58 0.23 2.58 -13.13 2.58 -7.50 0 -13.59 -0.47 -13.59 -0.94 0 -0.59 1.05 -1.99 2.34 -3.16 2.11 -1.99 2.34 -3.63 2.34 -20.51 0 -20.98 -0.47 -22.27 -9.02 -22.27 -7.97 0 -8.55 1.52 -8.55 22.62 0 18.05 0 18.28 2.70 18.63 1.64 0.23 2.70 1.29 2.93 3.05 0.35 2.58 0.23 2.58 -13.13 2.58 -7.50 0 -13.59 -0.47 -13.59 -0.94z"/>
  <path d="M704.65 757.03 c-4.92 -1.99 -6.56 -9.02 -3.16 -13.83 1.29 -1.88 2.93 -2.58 6.33 -2.58 9.84 0 13.13 11.48 4.57 15.82 -3.75 1.99 -4.10 1.99 -7.73 0.59z"/>
  <path d="M815.98 757.03 c-5.16 -2.11 -6.68 -10.08 -2.70 -14.06 2.34 -2.34 8.67 -3.16 11.25 -1.41 1.88 1.17 3.98 5.63 3.98 8.20 0 5.39 -7.15 9.49 -12.54 7.27z"/>
  <path d="M575.86 693.40 c-36.80 -22.27 -52.73 -32.58 -68.20 -43.95 -45.12 -32.81 -67.73 -62.58 -75.35 -99.26 -2.11 -9.84 -2.23 -17.93 -2.23 -129.14 l0 -118.71 172.85 0 172.85 0 0 117.30 c0 113.79 -0.12 117.66 -2.46 129.14 -8.79 43.13 -35.63 75 -97.73 116.48 -15.94 10.66 -71.02 43.71 -72.77 43.71 -0.70 0 -12.77 -7.03 -26.95 -15.59z m46.29 -9.84 c51.91 -31.05 80.04 -51.21 101.02 -72.66 15.47 -15.82 26.13 -31.17 31.64 -45.23 7.03 -18.28 6.91 -16.17 6.91 -139.22 l0 -112.38 -159.38 0 -159.49 0 0.35 116.37 0.35 116.25 2.70 8.20 c10.08 31.76 31.64 57.66 72.30 86.84 21.80 15.59 80.39 51.80 84.26 51.91 1.29 0.12 9.96 -4.45 19.34 -10.08z"/>
  <path d="M582.42 672.30 c-4.22 -2.58 -16.05 -9.96 -26.37 -16.41 -64.34 -39.96 -91.41 -68.32 -102.30 -107.70 -1.88 -6.80 -1.99 -16.17 -1.99 -115.78 l0 -108.40 70.08 -0.35 69.96 -0.23 0 35.16 0 35.16 -31.05 0 c-17.11 0 -31.41 0.12 -31.88 0.35 -0.59 0.12 -1.05 -0.94 -1.29 -2.46 -0.59 -4.10 -3.40 -3.05 -13.24 5.16 l-9.26 7.62 10.90 9.14 c10.55 8.91 10.78 9.14 11.37 6.09 l0.59 -3.05 31.99 -0.35 31.88 -0.23 0 130.66 c0 71.84 -0.35 130.66 -0.82 130.55 -0.59 0 -4.34 -2.23 -8.55 -4.92z m-39.84 -94.57 c0 -4.57 -0.12 -4.69 -3.87 -4.69 -2.11 0 -4.92 -0.70 -6.21 -1.64 -1.99 -1.52 -2.23 -3.52 -2.58 -24.73 -0.35 -16.64 0 -23.44 0.94 -24.73 1.17 -1.29 5.27 -1.64 20.16 -1.64 13.83 0 18.75 -0.35 18.98 -1.41 0.35 -0.82 0.82 -3.98 1.17 -7.03 l0.70 -5.63 -20.86 -0.23 -20.74 -0.35 -0.35 -23.20 c-0.12 -14.65 0.12 -24.02 0.94 -25.43 1.17 -2.11 2.58 -2.34 16.41 -2.34 l15.23 0 2.34 4.69 c1.99 3.87 3.05 4.69 5.86 4.69 1.88 0 3.63 -0.47 3.98 -0.94 0.35 -0.59 -0.23 -5.39 -1.41 -10.55 l-1.99 -9.61 -34.22 0 -34.34 0 0 4.69 c0 4.57 0.12 4.69 3.87 4.69 2.11 0 4.45 0.59 5.27 1.41 1.99 1.99 1.99 116.48 0 117.66 -0.70 0.47 -2.93 1.17 -4.92 1.52 -3.16 0.70 -3.63 1.29 -3.98 5.16 l-0.35 4.34 19.92 0 20.04 0 0 -4.69z"/>
 </g>
</svg>